<svg xmlns="http://www.w3.org/2000/svg" version="1.1" xmlns:xlink="http://www.w3.org/1999/xlink" xmlns:svgjs="http://svgjs.dev/svgjs" width="1500" height="1500" viewBox="0 0 1500 1500"><g transform="matrix(1,0,0,1,-0.21332335329316265,-0.21332335329350371)"><svg viewBox="0 0 334 334" data-background-color="#f9f6ed" preserveAspectRatio="xMidYMid meet" height="1500" width="1500" xmlns="http://www.w3.org/2000/svg" xmlns:xlink="http://www.w3.org/1999/xlink"><g id="tight-bounds" transform="matrix(1,0,0,1,0.04749999999998522,0.04750000000001364)"><svg viewBox="0 0 333.90454557049503 333.90454557049503" height="333.90454557049503" width="333.90454557049503"><g><svg></svg></g><g><svg viewBox="0 0 333.90454557049503 333.90454557049503" height="333.90454557049503" width="333.90454557049503"><g><path d="M0 166.952c0-92.205 74.747-166.952 166.952-166.952 92.205 0 166.952 74.747 166.953 166.952 0 92.205-74.747 166.952-166.953 166.953-92.205 0-166.952-74.747-166.952-166.953zM166.952 327.234c88.521 0 160.281-71.76 160.282-160.282 0-88.521-71.76-160.281-160.282-160.281-88.521 0-160.281 71.76-160.281 160.281 0 88.521 71.76 160.281 160.281 160.282z" data-fill-palette-color="tertiary" fill="#21272d" stroke="transparent"></path><ellipse rx="160.27418187383762" ry="160.27418187383762" cx="166.95227278524752" cy="166.95227278524752" fill="#21272d" stroke="transparent" stroke-width="0" fill-opacity="1" data-fill-palette-color="tertiary"></ellipse></g><g transform="matrix(1,0,0,1,76.15130495906435,71.17305217166896)"><svg viewBox="0 0 181.60193565236634 191.55844122715712" height="191.55844122715712" width="181.60193565236634"><g><svg viewBox="0 0 181.60193565236634 191.55844122715712" height="191.55844122715712" width="181.60193565236634"><g><svg viewBox="0 0 213.1584412271571 224.84506340311543" height="191.55844122715712" width="181.60193565236634"><g transform="matrix(1,0,0,1,0,138.01917605611015)"><svg viewBox="0 0 213.1584412271571 86.82588734700528" height="86.82588734700528" width="213.1584412271571"><g id="textblocktransform"><svg viewBox="0 0 213.1584412271571 86.82588734700528" height="86.82588734700528" width="213.1584412271571" id="textblock"><g><svg viewBox="0 0 213.1584412271571 86.82588734700528" height="86.82588734700528" width="213.1584412271571"><g transform="matrix(1,0,0,1,0,0)"><svg width="213.1584412271571" viewBox="3 -38.85 120.04 48.900000000000006" height="86.82588734700528" data-palette-color="#f9f6ed"><path d="M25.35-10.4L25.35-10.4Q25.35-8.05 24.55-6.05 23.75-4.05 22.3-2.6 20.85-1.15 18.82-0.33 16.8 0.5 14.4 0.5L14.4 0.5Q13.15 0.5 12.03 0.23 10.9-0.05 9.95-0.53 9-1 8.3-1.58 7.6-2.15 7.25-2.75L7.25-2.75Q7.25-2.5 7.28-2.23 7.3-1.95 7.3-1.7L7.3-1.7 7.3 0 3 0 3-38.85 7.3-38.85 7.3-17.85Q7.7-18.45 8.38-19.07 9.05-19.7 9.98-20.23 10.9-20.75 12.05-21.1 13.2-21.45 14.6-21.45L14.6-21.45Q17-21.45 18.98-20.68 20.95-19.9 22.38-18.48 23.8-17.05 24.58-15 25.35-12.95 25.35-10.4ZM20.7-10.5L20.7-10.5Q20.7-11.95 20.25-13.18 19.8-14.4 18.95-15.3 18.1-16.2 16.9-16.73 15.7-17.25 14.2-17.25L14.2-17.25Q12.7-17.25 11.43-16.73 10.15-16.2 9.25-15.3 8.35-14.4 7.83-13.18 7.3-11.95 7.3-10.5L7.3-10.5Q7.3-9.05 7.83-7.8 8.35-6.55 9.25-5.65 10.15-4.75 11.43-4.23 12.7-3.7 14.2-3.7L14.2-3.7Q15.7-3.7 16.9-4.23 18.1-4.75 18.95-5.68 19.8-6.6 20.25-7.83 20.7-9.05 20.7-10.5ZM28.55-10.5L28.55-10.5Q28.55-12.75 29.42-14.75 30.3-16.75 31.8-18.23 33.3-19.7 35.32-20.58 37.35-21.45 39.7-21.45L39.7-21.45Q42.05-21.45 44.07-20.58 46.1-19.7 47.57-18.23 49.05-16.75 49.87-14.75 50.7-12.75 50.7-10.5L50.7-10.5Q50.7-8.25 49.87-6.25 49.05-4.25 47.57-2.75 46.1-1.25 44.07-0.38 42.05 0.5 39.65 0.5L39.65 0.5Q37.35 0.5 35.32-0.3 33.3-1.1 31.8-2.55 30.3-4 29.42-6.03 28.55-8.05 28.55-10.5ZM32.8-10.45L32.8-10.45Q32.8-9.05 33.32-7.83 33.85-6.6 34.77-5.68 35.7-4.75 36.92-4.23 38.15-3.7 39.55-3.7L39.55-3.7Q40.95-3.7 42.2-4.23 43.45-4.75 44.37-5.68 45.3-6.6 45.85-7.83 46.4-9.05 46.4-10.45L46.4-10.45Q46.4-11.85 45.85-13.1 45.3-14.35 44.37-15.28 43.45-16.2 42.2-16.73 40.95-17.25 39.55-17.25L39.55-17.25Q38.15-17.25 36.92-16.73 35.7-16.2 34.77-15.28 33.85-14.35 33.32-13.1 32.8-11.85 32.8-10.45ZM53.8-10.5L53.8-10.5Q53.8-12.75 54.67-14.75 55.55-16.75 57.05-18.23 58.55-19.7 60.57-20.58 62.6-21.45 64.95-21.45L64.95-21.45Q67.3-21.45 69.32-20.58 71.34-19.7 72.82-18.23 74.3-16.75 75.12-14.75 75.95-12.75 75.95-10.5L75.95-10.5Q75.95-8.25 75.12-6.25 74.3-4.25 72.82-2.75 71.34-1.25 69.32-0.38 67.3 0.5 64.9 0.5L64.9 0.5Q62.6 0.5 60.57-0.3 58.55-1.1 57.05-2.55 55.55-4 54.67-6.03 53.8-8.05 53.8-10.5ZM58.05-10.45L58.05-10.45Q58.05-9.05 58.57-7.83 59.1-6.6 60.02-5.68 60.95-4.75 62.17-4.23 63.4-3.7 64.8-3.7L64.8-3.7Q66.2-3.7 67.45-4.23 68.7-4.75 69.62-5.68 70.55-6.6 71.09-7.83 71.65-9.05 71.65-10.45L71.65-10.45Q71.65-11.85 71.09-13.1 70.55-14.35 69.62-15.28 68.7-16.2 67.45-16.73 66.2-17.25 64.8-17.25L64.8-17.25Q63.4-17.25 62.17-16.73 60.95-16.2 60.02-15.28 59.1-14.35 58.57-13.1 58.05-11.85 58.05-10.45ZM95.34-21.45L95.34-21.45 97.89-18.9Q95.99-17.15 94.27-15.5 92.54-13.85 90.64-12.05L90.64-12.05Q92.89-9.05 95.04-6.03 97.19-3 99.39 0L99.39 0 94.49 0Q92.79-2.35 91.07-4.63 89.34-6.9 87.64-9.25L87.64-9.25 84.74-6.6 84.74 0 80.49 0 80.49-38.85 84.74-38.85 84.74-11.6Q87.54-14.15 90.09-16.53 92.64-18.9 95.34-21.45ZM123.04-20.9L108.14 10.05 103.84 10.05Q104.54 8.6 105.17 7.28 105.79 5.95 106.42 4.58 107.04 3.2 107.69 1.73 108.34 0.25 109.14-1.45L109.14-1.45Q107.99-3.7 106.79-6.18 105.59-8.65 104.39-11.15 103.19-13.65 102.02-16.15 100.84-18.65 99.69-20.9L99.69-20.9 104.34-20.9Q106.14-17.35 107.31-14.9 108.49-12.45 109.27-10.68 110.04-8.9 110.52-7.65 110.99-6.4 111.34-5.35L111.34-5.35Q111.74-6.4 112.22-7.65 112.69-8.9 113.47-10.68 114.24-12.45 115.42-14.9 116.59-17.35 118.39-20.9L118.39-20.9 123.04-20.9Z" opacity="1" transform="matrix(1,0,0,1,0,0)" fill="#f9f6ed" class="wordmark-text-0" data-fill-palette-color="quaternary" id="text-0"></path></svg></g></svg></g></svg></g></svg></g><g transform="matrix(1,0,0,1,40.713262274387006,0)"><svg viewBox="0 0 131.7319166783831 117.52166787477854" height="117.52166787477854" width="131.7319166783831"><g><svg xmlns="http://www.w3.org/2000/svg" xmlns:xlink="http://www.w3.org/1999/xlink" version="1.1" x="0" y="0" viewBox="8.386999999999999 13.004999999999999 84.192 75.11" enable-background="new 0 0 100 100" xml:space="preserve" height="117.52166787477854" width="131.7319166783831" class="icon-icon-0" data-fill-palette-color="quaternary" id="icon-0"><g fill="#f9f6ed" data-fill-palette-color="quaternary"><path d="M49.569 22.967c-9.975-5.691-20.677-9.125-31.045-9.962v58.351c10.367 0.814 21.05 4.154 31.045 9.699V22.967z" fill="#f9f6ed" data-fill-palette-color="quaternary"></path><path d="M49.229 84.073c0.814 0.278 1.671 0.29 2.485 0.012 11.657-5.043 23.865-7.313 35.798-6.79V19.524c-1.074-0.048-2.155-0.059-3.24-0.055v53.594l-0.852 0.056c-10.672 0.697-21.732 4.177-32.021 10.048-0.594 0.203-1.237 0.203-1.83 0-10.29-5.871-21.349-9.351-32.021-10.048l-0.854-0.056V19.469c-1.084-0.004-2.166 0.006-3.239 0.055v57.771C25.387 76.771 37.569 79.03 49.229 84.073z" fill="#f9f6ed" data-fill-palette-color="quaternary"></path><path d="M92.579 26.009c-1.07-0.149-2.157-0.228-3.237-0.335v53.55l-0.968-0.056c-12.195-0.699-25.06 1.777-36.975 7.065l-0.916 0.381-0.915-0.381c-11.917-5.288-24.781-7.765-36.976-7.065l-0.967 0.056v-53.55c-1.081 0.108-2.168 0.187-3.238 0.335v58.707c0.594 0.307 1.044 0.748 1.044 0.748 12.951-1.75 26.393-1.536 39.18 2.651 0.588-0.058 1.212-0.095 1.873-0.095 0.661 0 1.285 0.037 1.872 0.095 12.785-4.188 26.229-4.401 39.179-2.651 0 0 0.474-0.462 1.044-0.748V26.009z" fill="#f9f6ed" data-fill-palette-color="quaternary"></path><path d="M65.283 16.667v20.625l-3.98-4.738-4.195 4.738V19.994c-1.924 0.91-3.829 1.901-5.708 2.974v58.087c9.993-5.545 20.679-8.885 31.045-9.699V13.005C76.766 13.464 70.987 14.706 65.283 16.667z" fill="#f9f6ed" data-fill-palette-color="quaternary"></path></g></svg></g></svg></g><g></g></svg></g></svg></g></svg></g></svg></g><defs></defs></svg><rect width="333.90454557049503" height="333.90454557049503" fill="none" stroke="none" visibility="hidden"></rect></g></svg></g></svg>